<svg width="120" height="120" viewBox="0 0 200 200" fill="none" xmlns="http://www.w3.org/2000/svg">
<g clip-path="url(#clip0)">
<path d="M70.2769 116.774V123.508V139.18L70.7068 149.403L72.1193 152.893L77.0322 158.586L79.4886 161.831L80.1027 163.3L79.7342 165.136L32.4477 165.32L30.1755 164.891L32.8162 159.627L38.3432 152.893L40.0013 148.607L40.4312 71.0439L40.0013 48.2095L36.5009 42.0876L33.0619 37.3738V35.3536L37.9747 34.7415H48.7831L61.6794 34.9251L64.3815 35.9658L69.6628 41.6591L79.9185 56.78L89.56 71.2275L110.01 72.2682L117.993 58.9839L130.091 41.4755L136.846 34.4966L141.759 34.1293L151.34 34.3129L159.139 34.9251H163.867L166.324 35.3536L167.552 36.9453L161.165 45.7607L159.569 54.0864L159.323 135.752L159.569 148.362L161.779 153.505L165.71 158.402L168.166 160.606L170.377 163.055L169.763 164.891L122.292 165.504L119.222 164.096L121.862 159.994L128.003 152.648L130.091 148.607L130.276 121.671L125.363 109.183L85.2612 110.652L73.5931 113.468L70.2769 116.774Z" fill="white"/>
<path fill-rule="evenodd" clip-rule="evenodd" d="M38.8959 39.8837C38.2818 39.0267 38.5888 38.3533 39.6328 38.3533H60.881C61.925 38.3533 63.2761 39.0879 63.8288 39.9449L86.6737 73.2477C87.2878 74.1047 87.165 75.4515 86.4894 76.2474L67.9433 97.7962C67.2678 98.592 66.7151 100.122 66.7151 101.163V150.872C66.7151 151.913 67.3292 153.382 68.0661 154.117L75.067 161.035C75.8039 161.769 75.5583 162.381 74.5143 162.381H36.1938C35.1498 162.381 34.9042 161.769 35.6411 161.035L42.3963 154.178C43.1332 153.444 43.7474 151.974 43.7474 150.934V48.087C43.7474 47.0463 43.2561 45.5158 42.5805 44.6587L38.8959 39.8837Z" fill="#ED1B2F"/>
<path fill-rule="evenodd" clip-rule="evenodd" d="M161.104 39.8837C161.718 39.0267 161.411 38.3533 160.367 38.3533H139.119C138.075 38.3533 136.724 39.0879 136.11 39.9449L113.326 73.2477C112.712 74.1047 112.835 75.4515 113.51 76.2474L132.056 97.7962C132.732 98.592 133.285 100.122 133.285 101.163V150.872C133.285 151.913 132.671 153.382 131.934 154.117L124.933 161.035C124.196 161.769 124.441 162.381 125.485 162.381H163.745C164.788 162.381 165.034 161.769 164.297 161.035L157.542 154.178C156.805 153.444 156.191 151.974 156.191 150.934V48.087C156.191 47.0463 156.682 45.5158 157.358 44.6587L161.104 39.8837Z" fill="#ED1B2F"/>
<path d="M68.6803 37.8635C66.838 35.2924 63.3375 33.3946 60.1442 33.3334H35.3955C33.369 33.3334 31.4038 34.4353 31.4038 36.5167C31.4038 37.4962 31.8337 38.4145 32.4478 39.2715L36.4395 44.5975C37.7906 46.3116 39.0802 50.1684 39.0188 52.3722V146.832C39.0802 148.975 37.6063 152.586 36.1325 154.117L29.6843 161.035C28.886 161.892 28.3333 162.749 28.3333 163.851C28.3333 164.769 28.8245 165.626 29.5615 166.055C30.2984 166.483 31.1582 166.667 32.1407 166.667H78.0762C79.0588 166.667 79.9185 166.483 80.6554 166.055C81.3924 165.626 81.9451 164.708 81.8837 163.789C81.8837 162.749 81.331 161.83 80.594 160.973L74.3915 154.178C72.9177 152.586 71.5052 148.975 71.5052 146.832V94.9189C71.4438 92.8375 73.1019 89.6541 74.8214 88.491L89.0074 78.4512C90.7269 77.2268 91.5866 75.3291 91.5866 73.4313C91.5866 72.2682 91.2796 71.0438 90.5426 70.0031L68.6803 37.8635ZM87.4721 76.3086L73.3475 86.3484C70.7683 88.2461 68.9874 91.7356 68.9259 94.9189V146.832C68.9874 149.893 70.4612 153.688 72.4878 155.953L78.6903 162.749C79.243 163.3 79.3044 163.728 79.3044 163.789H79.243C79.1202 163.851 78.7517 164.034 78.0762 164.034H32.1407C31.4652 164.034 31.0967 163.912 30.9739 163.789C30.9739 163.789 31.0353 163.3 31.588 162.749L38.0976 155.831C40.1856 153.566 41.6594 149.77 41.7209 146.71V52.3722C41.6594 49.3726 40.3698 45.4546 38.5889 43.0671L34.5972 37.7411C34.1673 37.1289 34.0445 36.7004 34.0445 36.5167C34.0445 36.3331 33.9831 36.0882 35.3955 35.9658H60.2056C62.2321 35.9045 65.4255 37.5574 66.5309 39.3328L88.3932 71.4111C88.7617 72.0233 89.0074 72.6967 89.0074 73.3701C88.9459 74.5332 88.4547 75.6352 87.4721 76.3086ZM170.316 161.035L163.806 154.117C162.332 152.586 160.858 148.975 160.92 146.832V52.3722C160.858 50.1684 162.148 46.3729 163.499 44.5975L167.552 39.2715C168.166 38.4145 168.596 37.4962 168.596 36.5167C168.596 34.4965 166.631 33.3334 164.604 33.3334H139.856C136.662 33.3946 133.162 35.2311 131.32 37.8635L109.457 69.9419C108.72 70.9826 108.413 72.207 108.413 73.3701C108.413 75.3291 109.334 77.2268 110.993 78.39L125.178 88.4298C126.898 89.5929 128.556 92.7763 128.495 94.8577V146.771C128.556 148.913 127.144 152.586 125.608 154.117L119.406 160.912C118.607 161.769 118.116 162.688 118.116 163.728C118.116 164.646 118.607 165.504 119.344 165.993C120.081 166.483 120.941 166.605 121.924 166.605H167.859C169.701 166.605 171.667 165.748 171.667 163.789C171.667 162.81 171.114 161.892 170.316 161.035ZM169.026 163.851C168.903 163.912 168.535 164.096 167.859 164.096H121.924C121.248 164.096 120.88 163.973 120.757 163.851H120.695C120.695 163.789 120.818 163.361 121.31 162.81L127.512 156.015C129.539 153.75 131.012 149.954 131.074 146.893V94.9801C131.012 91.7968 129.17 88.3073 126.652 86.4096L112.466 76.3698C111.484 75.6964 110.993 74.5945 110.993 73.4925C110.993 72.8191 111.177 72.1457 111.607 71.5336L133.469 39.394C134.574 37.6799 137.768 35.9658 139.794 36.027H164.543C166.017 36.1494 165.894 36.3943 165.894 36.5779C165.894 36.7616 165.771 37.1901 165.341 37.7411L161.288 43.0671C159.507 45.5158 158.218 49.3726 158.156 52.3722V146.832C158.218 149.893 159.691 153.688 161.779 155.953L168.228 162.871C168.965 163.361 169.026 163.851 169.026 163.851Z" fill="black"/>
<path d="M133.285 77.2267L133.223 76.5533L132.609 76.2473C123.889 71.6559 109.949 70.4315 100.062 70.4315C88.7619 70.4315 78.0764 70.9213 67.268 76.2473L66.5311 76.6146V77.4104C66.5311 83.6547 66.0398 89.348 66.0398 95.0413C66.0398 99.8775 66.4083 104.653 67.8207 109.611L69.0489 109.244L67.8207 109.611C71.8738 124.12 78.8133 140.832 99.7545 154.423L100.491 154.913L101.228 154.423C120.389 141.383 128.863 123.814 131.75 110.958C133.408 103.673 133.96 97.3063 133.96 91.1233C133.96 86.4707 133.653 82.0018 133.285 77.2267Z" fill="white"/>
<path fill-rule="evenodd" clip-rule="evenodd" d="M69.1101 109.305C66.1623 98.8368 67.8819 89.1643 67.8819 77.4716C78.3831 72.2681 88.7616 71.7783 100.061 71.7783C109.826 71.7783 123.643 73.0639 131.934 77.4104C132.793 88.4297 133.285 98.1634 130.46 110.652C127.635 123.202 119.344 140.465 100.491 153.26C79.9184 139.914 73.1632 123.691 69.1101 109.305Z" fill="#ED1B2F"/>
<path fill-rule="evenodd" clip-rule="evenodd" d="M78.9359 94.0005L68.9873 104.653C71.2595 115.182 77.5848 137.343 100.614 152.219C123.397 136.608 129.293 115.366 130.705 104.714L120.818 93.9393L109.887 104.959L99.8156 94.0005L89.8056 104.775L78.9359 94.0005Z" fill="white"/>
<path fill-rule="evenodd" clip-rule="evenodd" d="M75.804 85.4913L74.8214 86.5932L76.6023 86.3483L75.804 85.4913ZM78.6289 84.2669L79.7957 86.3483H77.5849L78.6289 84.2669ZM81.5152 85.4913L82.4364 86.5932L80.6555 86.3483L81.5152 85.4913ZM83.6032 82.7977C83.4804 82.7977 83.2347 82.6752 83.6032 82.614C83.7874 82.614 84.3401 82.614 84.8928 83.3486C85.1385 83.2262 85.6912 82.3079 86.3667 82.614C86.3667 82.6752 84.3401 87.0829 84.1559 87.4503C83.2961 86.9605 78.1376 86.6544 78.6289 86.6544C79.0588 86.6544 73.9002 86.8381 73.1633 87.4503C72.9177 86.9605 70.8911 82.4916 70.8911 82.4916C71.5052 82.2467 72.1807 83.1038 72.365 83.2262C72.8563 82.4916 73.409 82.4916 73.5318 82.4916C74.0231 82.614 73.716 82.6752 73.716 82.7977C71.2596 84.8179 74.8214 87.0829 75.6198 84.8179C78.8131 85.1852 77.9534 82.614 77.155 82.2467C76.5409 82.063 76.9708 82.0018 77.155 82.0018C77.4007 81.8182 77.8306 81.8182 77.8306 82.1243C77.8306 80.7162 77.9534 79.798 78.6903 79.4307C79.4886 79.9204 79.5501 80.7775 79.4887 82.1243C79.6115 81.8794 79.9799 82.0018 80.287 82.0018C80.4098 82.1243 80.9011 82.1243 80.4098 82.3079C79.5501 82.614 78.7517 85.3688 81.8837 84.8179C82.4978 87.0829 86.3053 84.573 83.6032 82.7977Z" fill="white"/>
<path fill-rule="evenodd" clip-rule="evenodd" d="M74.6986 88.3072C75.0056 88.3072 75.3127 88.6133 75.3127 88.8582C75.3127 89.1642 75.0056 89.4703 74.6986 89.4703C74.4529 89.4703 74.1459 89.1642 74.1459 88.8582C74.1459 88.6133 74.4529 88.3072 74.6986 88.3072ZM76.6023 87.8787C76.9094 87.8787 77.2164 88.1848 77.2164 88.4296C77.2164 88.7357 76.9094 89.0418 76.6023 89.0418C76.3567 89.0418 76.0496 88.7357 76.0496 88.4296C75.9882 88.1848 76.2952 87.8787 76.6023 87.8787ZM78.5675 87.695C78.8745 87.695 79.1816 88.0011 79.1816 88.246C79.1816 88.5521 78.8745 88.8582 78.5675 88.8582C78.3218 88.8582 78.0148 88.5521 78.0148 88.246C78.0148 88.0011 78.3218 87.695 78.5675 87.695ZM80.594 87.8787C80.9011 87.8787 81.2081 88.1848 81.2081 88.4296C81.2081 88.7357 80.9011 89.0418 80.594 89.0418C80.3484 89.0418 80.0413 88.7357 80.0413 88.4296C80.0413 88.1848 80.3484 87.8787 80.594 87.8787ZM82.4978 88.3072C82.8048 88.3072 83.1119 88.6133 83.1119 88.8582C83.1119 89.1642 82.8048 89.4703 82.4978 89.4703C82.2521 89.4703 81.9451 89.1642 81.9451 88.8582C81.9451 88.6133 82.2521 88.3072 82.4978 88.3072ZM74.3915 90.0213C74.023 89.4091 73.5932 88.3072 73.4089 88.0623C74.2687 87.3889 77.5235 87.2665 78.7517 87.2665C80.5326 87.2665 82.9276 87.5114 83.726 88.0623C83.726 88.0623 83.3575 89.3479 83.0505 90.1437C81.638 89.654 79.7957 89.4091 78.5675 89.4091C77.155 89.4091 75.4969 89.5928 74.3915 90.0213Z" fill="white"/>
<path fill-rule="evenodd" clip-rule="evenodd" d="M78.6905 89.7766C80.9627 89.7766 83.0506 90.2051 83.0506 90.45C83.0506 90.6949 81.2083 90.8785 78.8133 90.8785C76.5411 90.8785 74.5759 90.6949 74.5759 90.45C74.6373 90.2051 76.4183 89.7766 78.6905 89.7766Z" fill="white"/>
<path fill-rule="evenodd" clip-rule="evenodd" d="M118.792 85.4913L117.871 86.5932L119.652 86.3483L118.792 85.4913ZM121.678 84.2669L122.845 86.3483H120.634L121.678 84.2669ZM124.565 85.4913L125.486 86.5932L123.705 86.3483L124.565 85.4913ZM126.653 82.7977C126.53 82.7977 126.284 82.6752 126.653 82.614C126.837 82.614 127.389 82.614 127.942 83.3486C128.188 83.2262 128.741 82.3079 129.416 82.614C129.416 82.6752 127.389 87.0829 127.205 87.4503C126.345 86.9605 121.187 86.6544 121.678 86.6544C122.108 86.6544 116.95 86.8381 116.213 87.4503C115.967 86.9605 113.94 82.4916 113.94 82.4916C114.555 82.2467 115.23 83.1038 115.414 83.2262C115.906 82.4916 116.458 82.4916 116.581 82.4916C117.072 82.614 116.765 82.6752 116.765 82.7977C114.309 84.8179 117.932 87.0829 118.669 84.8179C121.862 85.1852 121.003 82.614 120.204 82.2467C119.59 82.063 120.02 82.0018 120.204 82.0018C120.45 81.8182 120.88 81.8182 120.88 82.1243C120.88 80.7162 121.003 79.798 121.678 79.4307C122.477 79.9204 122.538 80.7775 122.477 82.1243C122.599 81.8794 122.968 82.0018 123.275 82.0018C123.398 82.1243 123.889 82.1243 123.398 82.3079C122.538 82.614 121.74 85.3688 124.872 84.8179C125.547 87.0829 129.355 84.573 126.653 82.7977Z" fill="white"/>
<path fill-rule="evenodd" clip-rule="evenodd" d="M117.87 88.3072C118.177 88.3072 118.484 88.6133 118.484 88.8582C118.484 89.1642 118.177 89.4703 117.87 89.4703C117.625 89.4703 117.317 89.1642 117.317 88.8582C117.317 88.6133 117.625 88.3072 117.87 88.3072ZM119.713 87.8787C120.02 87.8787 120.327 88.1848 120.327 88.4296C120.327 88.7357 120.02 89.0418 119.713 89.0418C119.467 89.0418 119.16 88.7357 119.16 88.4296C119.16 88.1848 119.467 87.8787 119.713 87.8787ZM121.739 87.695C122.046 87.695 122.353 88.0011 122.353 88.246C122.353 88.5521 122.046 88.8582 121.739 88.8582C121.493 88.8582 121.186 88.5521 121.186 88.246C121.186 88.0011 121.493 87.695 121.739 87.695ZM123.766 87.8787C124.073 87.8787 124.38 88.1848 124.38 88.4296C124.38 88.7357 124.073 89.0418 123.766 89.0418C123.52 89.0418 123.213 88.7357 123.213 88.4296C123.152 88.1848 123.459 87.8787 123.766 87.8787ZM125.669 88.3072C125.976 88.3072 126.284 88.6133 126.284 88.8582C126.284 89.1642 125.976 89.4703 125.669 89.4703C125.424 89.4703 125.117 89.1642 125.117 88.8582C125.055 88.6133 125.424 88.3072 125.669 88.3072ZM117.563 90.0213C117.195 89.4091 116.765 88.3072 116.581 88.0623C117.44 87.3889 120.695 87.2665 121.923 87.2665C123.704 87.2665 126.099 87.5114 126.898 88.0623C126.898 88.0623 126.529 89.3479 126.222 90.1437C124.81 89.654 122.967 89.4091 121.739 89.4091C120.265 89.4091 118.607 89.5928 117.563 90.0213Z" fill="white"/>
<path fill-rule="evenodd" clip-rule="evenodd" d="M121.678 89.7766C123.95 89.7766 126.038 90.2051 126.038 90.45C126.038 90.6949 124.196 90.8785 121.801 90.8785C119.529 90.8785 117.563 90.6949 117.563 90.45C117.686 90.2051 119.406 89.7766 121.678 89.7766Z" fill="white"/>
<path fill-rule="evenodd" clip-rule="evenodd" d="M79.9802 109.366C80.1644 109.366 80.2873 109.55 80.2873 109.672C80.2873 109.856 80.103 109.978 79.9802 109.978C79.796 109.978 79.6117 109.795 79.6117 109.672C79.6731 109.55 79.796 109.366 79.9802 109.366ZM77.5238 114.264C77.708 113.896 78.015 112.917 78.1993 112.611C78.015 112.243 77.708 111.937 77.3395 111.937C77.5238 111.631 78.0765 111.08 78.015 110.835C77.8308 110.529 77.5852 110.591 77.0325 110.223C77.2167 109.795 77.708 109.55 77.9536 109.55C78.2607 109.489 78.2607 108.938 78.8748 108.693C79.4889 108.387 80.0416 108.387 80.7171 108.387C81.6997 108.448 84.279 109.121 83.6034 112.243C85.1387 115.366 90.4815 111.142 92.3852 111.142C92.0168 111.876 91.6483 112.55 91.2184 113.223C91.7097 113.529 92.3852 113.223 92.9993 113.223C92.3852 114.876 91.4026 115.672 90.5429 116.345C91.4026 119.1 94.596 117.998 97.4209 117.692C97.0525 118.61 95.8856 118.794 95.3944 119.467C96.3155 120.447 97.4209 121.794 98.0964 123.263C96.8068 122.406 94.2276 121.487 93.3064 121.181C91.6483 120.508 88.0865 120.508 86.4284 121.181C86.7354 121.855 87.4109 122.161 87.9636 122.589C87.1039 124.242 85.3844 123.263 84.3404 122.895C83.4192 123.569 81.8225 123.569 81.3927 123.263C81.3927 123.263 81.3926 122.834 81.8839 122.406C82.191 121.977 80.9014 121.794 80.4715 121.12C80.4715 120.508 81.2084 121.12 81.5769 120.447C80.6557 118.794 77.0325 118.365 77.5238 114.264Z" fill="#ED1B2F"/>
<path fill-rule="evenodd" clip-rule="evenodd" d="M104.421 109.856C104.667 109.856 104.728 109.917 104.728 110.162C104.728 110.346 104.667 110.468 104.421 110.468C104.237 110.468 104.053 110.285 104.053 110.162C104.053 109.979 104.237 109.856 104.421 109.856ZM102.026 114.754C102.088 114.386 102.456 113.407 102.702 113.101C102.456 112.795 102.088 112.366 101.842 112.366C102.026 112.06 102.579 111.632 102.456 111.387C102.395 111.081 102.088 111.142 101.535 110.774C101.719 110.346 102.149 110.101 102.456 110.04C102.763 110.04 102.763 109.55 103.316 109.183C103.93 108.938 104.605 108.938 105.281 108.877C106.202 109.06 108.843 109.734 108.167 112.795C109.703 115.794 115.045 111.693 116.949 111.693C116.642 112.366 116.089 113.101 115.782 113.774C116.274 114.08 116.949 113.774 117.563 113.774C116.949 115.427 115.967 116.223 115.107 116.896C115.967 119.59 119.16 118.549 121.985 118.243C121.678 119.161 120.45 119.223 119.897 120.018C120.879 120.998 121.985 122.345 122.66 123.814C121.371 122.957 118.73 122.039 117.87 121.733C116.089 121.059 112.65 121.059 110.869 121.733C111.176 122.406 111.975 122.712 112.466 123.079C111.545 124.855 109.887 123.814 108.843 123.508C107.922 124.181 106.325 124.181 105.895 123.814C105.895 123.814 105.895 123.324 106.386 122.957C106.755 122.467 105.404 122.345 104.974 121.671C104.974 120.998 105.649 121.671 106.079 120.998C105.097 119.161 101.535 118.855 102.026 114.754Z" fill="#ED1B2F"/>
<path fill-rule="evenodd" clip-rule="evenodd" d="M92.8146 127.12C92.876 127.12 93.0602 127.181 93.0602 127.487C93.0602 127.548 92.876 127.732 92.8146 127.732C92.5689 127.732 92.3847 127.548 92.3847 127.487C92.3847 127.242 92.5689 127.12 92.8146 127.12ZM90.2967 132.017C90.4809 131.711 90.788 130.67 91.0336 130.364C90.788 130.058 90.4195 129.63 90.1739 129.63C90.2353 129.262 90.8494 128.895 90.788 128.65C90.6038 128.344 90.4809 128.405 89.8054 128.038C90.0511 127.609 90.4809 127.364 90.788 127.303C91.1565 127.303 91.1565 126.814 91.6478 126.446C92.2619 126.201 92.9374 126.201 93.6129 126.14C94.5341 126.201 97.0519 126.997 96.3764 130.058C97.9117 133.058 103.377 128.956 105.22 128.956C104.913 129.63 104.36 130.364 104.053 131.038C104.544 131.344 105.22 131.038 105.711 131.038C105.22 132.69 104.176 133.364 103.377 134.16C104.237 136.853 107.43 135.813 110.255 135.507C109.887 136.425 108.72 136.486 108.167 137.221C109.15 138.323 110.255 139.669 110.931 141.077C109.641 140.22 107.001 139.302 106.141 138.996C104.36 138.323 100.921 138.323 99.1399 138.996C99.5084 139.669 100.122 139.975 100.737 140.343C99.8154 142.118 98.0959 141.077 97.0519 140.71C96.1922 141.445 94.5955 141.445 94.1042 141.139C94.1042 141.139 94.1042 140.649 94.7183 140.282C95.0254 139.792 93.7357 139.669 93.3059 138.996C93.3059 138.323 93.9814 138.996 94.4112 138.323C93.4287 136.425 89.8054 136.119 90.2967 132.017Z" fill="#ED1B2F"/>
<path fill-rule="evenodd" clip-rule="evenodd" d="M95.1487 77.9614H94.7802V79.6755H95.1487V77.9614ZM96.7454 79.1246L96.0699 77.9002H95.7014V79.6143H96.0699V78.3899L96.7454 79.6143H97.1138V77.9002H96.7454V79.1246ZM93.4292 83.4098H94.2275C94.8416 83.4098 94.9645 82.8589 94.9645 82.4916C94.9645 82.1243 94.8416 81.6345 94.2889 81.6345H93.4292V83.4098ZM93.7976 81.9406H94.1661C94.3503 81.9406 94.596 82.0018 94.596 82.4916C94.596 82.7977 94.4732 83.1037 94.1661 83.1037H93.7976V81.9406ZM95.1487 82.3079C95.1487 83.165 95.7628 83.2262 96.0084 83.2262C96.1927 83.2262 96.8682 83.165 96.8682 82.3079C96.8682 81.5121 96.1927 81.3896 96.0084 81.3896C95.7014 81.3896 95.1487 81.5121 95.1487 82.3079ZM95.5172 82.3079C95.5172 81.8182 95.7628 81.6957 96.0084 81.6957C96.1927 81.6957 96.4997 81.8182 96.4997 82.3079C96.4997 82.7977 96.1927 82.9813 96.0084 82.9813C95.7628 82.9813 95.5172 82.7977 95.5172 82.3079ZM98.8334 81.2672H98.2807L97.9736 82.614L97.6665 81.2672H97.1138V83.0425H97.4823V81.5733L97.8508 83.0425H98.2192L98.5877 81.5733V83.0425H98.9562V81.2672H98.8334ZM94.596 85.3688H94.2275V87.1442H94.596V85.3688ZM96.1313 86.4095L95.4557 85.1852H95.0259V86.9605H95.3943V85.6749L96.0699 86.9605H96.4383V85.1852H96.0699V86.4095H96.1313ZM96.8682 85.981C96.8682 86.8381 97.4823 86.8993 97.728 86.8993C97.9736 86.8993 98.5263 86.7768 98.5263 85.981C98.5263 85.1852 97.9122 85.0627 97.728 85.0627C97.4209 85.0627 96.8682 85.1852 96.8682 85.981ZM97.1753 85.981C97.1753 85.4913 97.4823 85.3688 97.6665 85.3688C97.8508 85.3688 98.1578 85.4913 98.1578 85.981C98.1578 86.4708 97.8508 86.6544 97.6665 86.6544C97.4823 86.6544 97.1753 86.532 97.1753 85.981ZM92.8151 76.2473C92.8151 76.2473 94.3503 76.9207 95.64 76.3697C97.1753 75.7576 98.6491 75.329 99.7545 75.88V89.0419C98.8334 88.6746 97.5437 88.797 96.1313 89.1644C94.7188 89.5317 93.9205 89.5317 92.7537 89.348V76.2473H92.8151Z" fill="white"/>
<path fill-rule="evenodd" clip-rule="evenodd" d="M92.3852 76.3086L91.157 77.2881V90.45L92.3852 89.2869V76.3086Z" fill="white"/>
<path fill-rule="evenodd" clip-rule="evenodd" d="M91.5251 90.6948L92.7534 89.7153C93.6745 89.9601 95.5783 89.5928 96.4994 89.4704C98.0347 89.2867 98.6488 88.9806 99.7542 89.4704C99.1401 89.7153 98.7716 90.2662 98.7716 90.6948H91.5251Z" fill="white"/>
<path fill-rule="evenodd" clip-rule="evenodd" d="M108.352 90.6948L107.124 89.7153C106.08 89.9601 104.299 89.5928 103.377 89.4704C101.719 89.2867 101.228 88.9806 100.307 89.4704C100.798 89.7153 101.105 90.2662 101.044 90.6948H108.352Z" fill="white"/>
<path fill-rule="evenodd" clip-rule="evenodd" d="M107.492 76.125L108.659 77.2881V90.3276L107.492 89.2257V76.125Z" fill="white"/>
<path fill-rule="evenodd" clip-rule="evenodd" d="M105.772 79.4307L105.097 78.2063H104.728V79.9816H105.097V78.7572L105.834 79.9816H106.202V78.2063H105.834V79.4307H105.772ZM103.07 79.0633C103.07 78.5736 103.316 78.4512 103.562 78.4512C103.746 78.4512 104.053 78.5736 104.053 79.0633C104.053 79.5531 103.746 79.6755 103.562 79.6755C103.377 79.6755 103.07 79.5531 103.07 79.0633ZM102.702 79.0633C102.702 79.9204 103.316 79.9816 103.562 79.9816C103.746 79.9816 104.421 79.9204 104.421 79.0633C104.421 78.2675 103.746 78.1451 103.562 78.1451C103.316 78.1451 102.702 78.2063 102.702 79.0633ZM102.395 78.5124C102.333 78.2675 102.149 77.9002 101.597 77.9002C101.105 77.9002 100.798 78.2063 100.798 78.8185C100.798 79.4919 101.167 79.7367 101.597 79.7367C102.026 79.7367 102.272 79.4919 102.395 79.0633H102.026C101.965 79.3082 101.842 79.4307 101.658 79.4307C101.289 79.4307 101.228 79.1246 101.228 78.7572C101.228 78.2675 101.474 78.1451 101.658 78.1451C101.965 78.1451 102.026 78.3287 102.026 78.4512H102.395V78.5124ZM104.421 81.6957H104.053V83.4711H104.421V81.6957ZM102.702 82.6752H103.5V82.3079H102.702V81.9406H103.623V81.6345H102.333V83.4098H102.702V82.6752ZM104.114 86.2259C104.114 85.7361 104.36 85.6137 104.606 85.6137C104.79 85.6137 105.097 85.7361 105.097 86.2259C105.097 86.7156 104.79 86.8381 104.606 86.8381C104.36 86.8993 104.114 86.7768 104.114 86.2259ZM103.684 86.2259C103.684 87.0829 104.299 87.1442 104.544 87.1442C104.79 87.1442 105.404 87.0829 105.404 86.2259C105.404 85.43 104.79 85.3076 104.544 85.3076C104.299 85.3688 103.684 85.43 103.684 86.2259ZM102.088 85.43H102.456C102.641 85.43 102.825 85.4913 102.825 85.981C102.825 86.2871 102.763 86.5932 102.456 86.5932H102.088V85.43ZM101.719 86.8993H102.518C103.132 86.8993 103.255 86.3483 103.255 85.981C103.255 85.6137 103.132 85.1852 102.518 85.1852H101.719V86.8993ZM107.062 76.2473C107.062 76.2473 105.527 76.9207 104.237 76.3697C102.579 75.7576 101.289 75.329 100.307 75.88V89.0419C101.105 88.6746 102.211 88.797 103.684 89.1644C105.158 89.5317 105.895 89.5317 107.062 89.348V76.2473Z" fill="white"/>
<path fill-rule="evenodd" clip-rule="evenodd" d="M99.9999 89.7152C99.5086 90.205 99.263 90.205 99.3858 90.6947H100.43C100.614 90.205 100.491 89.9601 99.9999 89.7152Z" fill="white"/>
</g>
<defs>
<clipPath id="clip0">
<rect width="100%" height="100%" fill="white" transform="translate(28.3333 33.3334)"/>
</clipPath>
</defs>
</svg>
