<?xml version="1.0" encoding="utf-8"?>
<!-- Generator: Adobe Illustrator 19.0.0, SVG Export Plug-In . SVG Version: 6.00 Build 0)  -->
<svg version="1.1" id="Layer_1" xmlns="http://www.w3.org/2000/svg" 
xmlns:xlink="http://www.w3.org/1999/xlink" width="20" height="20"
	 viewBox="0 0 16 16" style="enable-background:new 0 0 40 40;" xml:space="preserve">
<g id="XMLID_1_">
	<path id="XMLID_3_" d="M135.3,273V101h172L382.2,26C373.5,10.3,357,0,338,0H135.3c-28.4,0-50.5,22.9-50.5,50.5v273.8L135.3,273z"/>
	<path id="XMLID_6_" d="M472.2,7.1L3.6,476.5L39.1,512l45.8-45.8c4.7,22.9,25.2,41,49.7,41h202.7c28.4,0,50.5-22.9,50.5-50.5V162.5
		L508.4,43.4L472.2,7.1z M338,405.5H146.3L338,213.8C338,213.8,338,405.5,338,405.5z"/>
</g>
</svg>
